<svg xmlns="http://www.w3.org/2000/svg" id="canvas" viewBox="837.190 430.180 125.956 175.583"><path d="M 945.08,443.80 C 943.13 443.77, 941.77 444.32, 939.74 446.74 C 937.71 449.17, 937.50 451.39, 934.94 455.91 C 932.38 460.43, 930.75 463.32, 926.94 469.36 C 923.14 475.40, 920.89 478.98, 915.91 486.09 C 910.94 493.21, 907.84 497.19, 902.06 504.93 C 896.27 512.66, 892.88 516.87, 886.98 524.76 C 881.08 532.65, 877.95 536.85, 872.56 544.38 C 867.17 551.92, 864.48 555.80, 860.03 562.44 C 855.58 569.07, 853.64 572.29, 850.30 577.56 C 846.97 582.82, 845.37 584.92, 843.35 588.76 C 841.33 592.60, 839.97 594.07, 840.22 596.76 C 840.46 599.45, 841.96 601.26, 844.58 602.20 C 847.21 603.13, 850.42 602.93, 853.35 601.43 C 856.28 599.93, 858.17 597.87, 859.25 594.72 C 860.34 591.56, 860.25 588.21, 858.79 585.66 C 857.33 583.11, 854.82 581.91, 851.95 581.97 C 849.07 582.03, 846.48 583.81, 844.43 585.97 C 842.38 588.12, 841.80 590.17, 841.70 592.75 C 841.60 595.33, 842.68 597.65, 843.93 598.85 C 845.18 600.06, 846.66 600.13, 847.96 598.77 C 849.26 597.41, 848.94 595.72, 850.43 592.06 C 851.91 588.39, 852.63 585.84, 855.36 580.44 C 858.10 575.04, 859.95 571.77, 864.10 565.07 C 868.26 558.36, 870.88 554.46, 876.15 546.92 C 881.41 539.37, 884.52 535.19, 890.42 527.34 C 896.33 519.50, 899.74 515.32, 905.68 507.69 C 911.62 500.06, 914.79 496.10, 920.13 489.19 C 925.46 482.28, 927.94 478.82, 932.34 473.14 C 936.74 467.46, 938.87 464.86, 942.13 460.78 C 945.39 456.70, 947.18 455.53, 948.66 452.75 C 950.13 449.98, 950.21 448.69, 949.50 446.90 C 948.78 445.11, 947.03 443.83, 945.08 443.80" style="stroke: black; fill: black;"/><path d="M 949.60,434.36 C 948.13 435.13, 947.55 435.37, 946.94 437.12 C 946.32 438.86, 946.38 439.72, 946.51 443.09 C 946.65 446.47, 947.53 448.89, 947.62 454.01 C 947.70 459.12, 947.52 462.38, 946.92 468.67 C 946.32 474.95, 945.68 478.58, 944.62 485.42 C 943.55 492.26, 942.83 495.91, 941.61 502.88 C 940.39 509.85, 939.71 513.54, 938.50 520.26 C 937.29 526.98, 936.66 530.36, 935.55 536.48 C 934.44 542.61, 933.91 545.62, 932.93 550.88 C 931.95 556.14, 931.56 558.61, 930.65 562.78 C 929.74 566.94, 928.84 568.84, 928.38 571.72 C 927.92 574.60, 928.01 575.57, 928.33 577.19 C 928.65 578.82, 929.38 579.13, 929.97 579.85 C 930.55 580.56, 930.66 580.36, 931.24 580.79 C 931.81 581.22, 932.05 581.85, 932.84 582.00 C 933.62 582.15, 934.15 582.17, 935.17 581.53 C 936.20 580.88, 937.08 580.47, 937.95 578.77 C 938.81 577.07, 939.25 576.03, 939.48 573.04 C 939.72 570.04, 939.03 568.02, 939.12 563.78 C 939.21 559.55, 939.40 557.14, 939.93 551.88 C 940.46 546.62, 940.88 543.61, 941.76 537.49 C 942.64 531.37, 943.20 527.99, 944.33 521.28 C 945.46 514.56, 946.12 510.88, 947.41 503.93 C 948.71 496.98, 949.46 493.35, 950.81 486.51 C 952.15 479.67, 952.92 476.04, 954.15 469.71 C 955.38 463.39, 955.91 460.16, 956.96 454.87 C 958.00 449.59, 959.13 447.09, 959.38 443.29 C 959.62 439.50, 959.21 437.90, 958.19 435.90 C 957.17 433.89, 955.97 433.57, 954.26 433.26 C 952.54 432.95, 951.06 433.59, 949.60 434.36" style="stroke: black; fill: black;"/><path d="M 860.82,525.50 C 862.05 526.86, 862.91 527.54, 865.27 527.45 C 867.62 527.36, 868.69 526.21, 872.58 525.05 C 876.47 523.89, 879.11 522.87, 884.70 521.63 C 890.29 520.40, 893.89 519.82, 900.53 518.89 C 907.18 517.97, 910.94 517.53, 917.92 517.01 C 924.90 516.49, 929.08 516.40, 935.43 516.29 C 941.77 516.18, 945.01 516.50, 949.65 516.46 C 954.28 516.41, 956.76 517.07, 958.62 516.06 C 960.48 515.05, 960.70 512.68, 958.95 511.42 C 957.20 510.15, 954.59 510.08, 949.86 509.74 C 945.12 509.40, 941.75 509.51, 935.27 509.71 C 928.79 509.91, 924.57 510.27, 917.47 510.75 C 910.38 511.24, 906.60 511.61, 899.81 512.12 C 893.01 512.63, 889.39 512.87, 883.49 513.30 C 877.59 513.74, 874.62 513.72, 870.31 514.29 C 865.99 514.86, 864.15 514.88, 861.91 516.16 C 859.67 517.43, 859.32 518.80, 859.11 520.67 C 858.89 522.53, 859.59 524.15, 860.82 525.50" style="stroke: black; fill: black;"/></svg>